<svg width="596" height="214" viewBox="0 0 596 214" fill="none" xmlns="http://www.w3.org/2000/svg">
<path d="M155.047 67.8456C144.673 67.8456 137.274 65.8688 132.848 61.926C128.411 57.9834 126.192 51.39 126.168 42.1477C126.192 33.3961 128.411 27.1667 132.848 23.4591C137.274 19.7408 144.673 17.8816 155.047 17.8816C165.47 17.8816 172.905 19.7302 177.342 23.4271C181.779 27.1133 183.986 33.3106 183.962 42.0193V42.1369C183.986 51.3901 181.779 57.9834 177.342 61.926C172.905 65.8688 165.47 67.8456 155.047 67.8456ZM155.047 54.2001C157.553 54.2001 159.544 53.2814 161.008 51.4329C162.471 49.5843 163.203 47.0734 163.203 43.8894C163.203 40.5556 162.531 38.066 161.176 36.4098C159.832 34.7637 157.793 33.9411 155.047 33.9411C152.325 33.9411 150.298 34.7958 148.955 36.5061C147.6 38.2155 146.928 40.812 146.928 44.2739C146.928 47.3406 147.66 49.7659 149.111 51.5397C150.562 53.3134 152.541 54.2001 155.047 54.2001Z" fill="#F5821F"/>
<path d="M210.622 66.8733H200.261H189.863V18.8538H200.225H210.622V36.442L221.332 18.8538H233.505H245.69L228.336 42.8634L245.69 66.8733H233.361H221.032L210.622 49.4026V66.8733Z" fill="#F5821F"/>
<path d="M287.965 66.8733V33.8449H274.328V26.3655V18.8538H322.36V26.3335V33.8449H308.724V66.8733H298.362H287.965Z" fill="#F5821F"/>
<path d="M327.985 66.8733V18.8538H373.102V26.3335V33.8449H348.745V38.4827H373.102V44.0922V49.7233H348.745V55.632H373.102V61.2423V66.8733H327.985Z" fill="#F5821F"/>
<path d="M401.693 66.8733H391.331H380.934V18.8538H391.295H401.693V36.442L412.403 18.8538H424.576H436.761L419.407 42.8634L436.761 66.8733H424.432H412.103L401.693 49.4026V66.8733Z" fill="#F5821F"/>
<path d="M461.466 66.8733H451.8H442.109V18.8538H454.055H465.999L477.489 40.3846V18.8538H487.155H496.845V66.8733H486.195H475.558L461.466 40.4487V66.8733Z" fill="#F5821F"/>
<path d="M507.051 66.8733V18.8538H517.414H527.811V66.8733H517.45H507.051ZM521.599 2.35589C522.762 2.35589 523.757 2.71917 524.574 3.45632C525.401 4.18287 525.808 5.06984 525.808 6.10619V9.62139C525.808 10.658 525.401 11.5447 524.574 12.2713C523.757 13.0087 522.762 13.3719 521.599 13.3719H513.227C512.064 13.3719 511.069 13.0087 510.254 12.2713C509.426 11.5447 509.018 10.658 509.018 9.62139V6.10619C509.018 5.06984 509.426 4.18287 510.254 3.45632C511.069 2.71917 512.064 2.35589 513.227 2.35589H521.599Z" fill="#F5821F"/>
<path d="M558.261 66.8733H547.899H537.501V18.8538H547.863H558.261V36.442L568.97 18.8538H581.143H593.329L575.974 42.8634L593.329 66.8733H581H568.671L558.261 49.4026V66.8733Z" fill="#F5821F"/>
<path fill-rule="evenodd" clip-rule="evenodd" d="M9.30027 24.4375C9.30027 24.4375 10.1686 44.39 26.083 50.9314C41.9981 57.4731 48.9427 61.725 69.1985 70.5567C80.1137 75.3156 88.0867 79.7927 93.3464 87.3093L111.734 76.117L112.024 72.5194H106.815L139.224 64.0149L95.4547 90.7647C98.6422 96.7842 100.474 104.585 101.028 115.367C102.475 143.497 96.9773 163.449 97.5557 176.86C98.1345 190.27 98.7129 202.372 105.079 203.026C111.445 203.68 118.39 202.372 118.39 202.372L116.364 210.222C116.364 210.222 111.445 213.82 103.343 209.568C95.241 205.315 8.08629 143.981 8.08629 143.981L93.7938 191.905C93.7938 191.905 92.7094 163.19 90.611 144.478C88.5129 125.766 85.6941 114.363 79.3158 100.628L7.56399 144.478L3.59458 31.3025L17.6921 133.357L77.5053 96.9512C73.7237 89.7008 69.0016 83.2004 63.1215 78.0797C45.4707 62.7067 27.8193 57.8004 16.824 50.6048C5.82771 43.4086 2.35516 32.2875 2.35516 32.2875L9.30027 24.4375ZM86.8494 170.971L90.322 184.709C90.322 184.709 69.117 174.109 43.9422 158.082C43.9422 158.082 64.8538 168.867 73.5347 170.828C82.2154 172.791 86.8494 170.971 86.8494 170.971ZM66.015 116.022L74.6959 110.461C74.6959 110.461 82.5092 117.657 84.8238 134.338C87.1385 151.019 86.5601 161.813 86.5601 161.813C86.5601 161.813 82.7985 132.703 66.015 116.022ZM30.1346 62.0522C30.1346 62.0522 50.1006 85.2752 58.4916 101.957L68.6197 96.0689C68.6197 96.0689 50.1007 71.2107 30.1346 62.0522Z" fill="#231F20"/>
<path d="M147.624 124.495H144.563L142.718 111.513L139.134 124.809H138.003L134.419 111.513L132.499 124.495H129.45L133.034 100.41H134.709L138.562 116.627L142.328 100.41H143.991L147.624 124.495Z" fill="#231F20"/>
<path d="M152.73 104.206V109.842H158.611V113.47H152.73V120.682H160.796V124.478H149.569V100.41H160.933V104.206H152.73Z" fill="#231F20"/>
<path d="M170.97 104.206V124.478H167.809V104.206H162.148V100.41H176.883V104.206H170.97Z" fill="#231F20"/>
<path d="M186.983 124.478L185.685 119.599H179.584L178.343 124.478H174.836L181.932 100.079H183.317L190.471 124.478H186.983ZM182.624 107.442L180.484 116.33H184.76L182.624 107.442Z" fill="#231F20"/>
<path d="M192.353 124.478V100.41H195.514V120.682H203.56V124.478H192.353Z" fill="#231F20"/>
<path d="M219.897 124.809H218.16L211.503 100.41H214.979L219.096 116.672L223.447 100.41H226.848L219.897 124.809Z" fill="#231F20"/>
<path d="M231.887 104.206V109.842H237.769V113.47H231.887V120.682H239.954V124.478H228.727V100.41H240.091V104.206H231.887Z" fill="#231F20"/>
<path d="M261.061 124.478L256.105 114.227L254.122 117.889V124.478H250.961V100.41H254.122V111.928L260.173 100.41H263.768L258.194 110.924L264.839 124.478H261.061Z" fill="#231F20"/>
<path d="M269.48 104.206V109.842H275.361V113.47H269.48V120.682H277.546V124.478H266.319V100.41H277.683V104.206H269.48Z" fill="#231F20"/>
<path d="M279.624 123.149L280.794 119.319C282.038 120.502 283.265 121.091 284.472 121.091C286.33 121.091 287.255 120.216 287.255 118.467C287.255 117.643 287.036 116.863 286.599 116.117C286.165 115.371 285.26 114.536 283.895 113.61C282.531 112.685 281.61 111.922 281.137 111.328C280.665 110.728 280.3 110.022 280.043 109.197C279.79 108.378 279.662 107.47 279.662 106.472C279.662 104.61 280.167 103.068 281.176 101.84C282.183 100.612 283.477 100 285.057 100C287.114 100 288.624 100.522 289.59 101.559L288.628 105.238C287.52 104.167 286.347 103.629 285.119 103.629C284.39 103.629 283.825 103.892 283.423 104.408C283.021 104.929 282.822 105.608 282.822 106.438C282.822 107.818 283.95 109.253 286.21 110.745C287.4 111.53 288.259 112.259 288.786 112.921C289.312 113.582 289.715 114.356 289.989 115.236C290.266 116.117 290.403 117.104 290.403 118.186C290.403 120.137 289.835 121.742 288.694 122.998C287.558 124.26 286.032 124.888 284.12 124.888C282.461 124.888 280.963 124.31 279.624 123.149Z" fill="#231F20"/>
<path d="M293.257 124.478V100.41H296.417V124.478H293.257ZM294.874 93.4786C295.376 93.4786 295.807 93.7196 296.168 94.207C296.529 94.6954 296.711 95.2782 296.711 95.9567C296.711 96.6352 296.529 97.219 296.168 97.7064C295.807 98.1946 295.376 98.4356 294.874 98.4356C294.364 98.4356 293.929 98.1946 293.568 97.7064C293.207 97.219 293.029 96.6352 293.029 95.9567C293.029 95.2782 293.207 94.6954 293.568 94.207C293.929 93.7196 294.364 93.4786 294.874 93.4786Z" fill="#231F20"/>
<path d="M312.323 101.694L311.02 105.221C310.315 104.268 309.183 103.797 307.619 103.797C306.139 103.797 304.924 104.632 303.975 106.315C303.028 107.997 302.551 110.122 302.551 112.696C302.551 115.27 302.991 117.317 303.87 118.825C304.75 120.34 305.923 121.091 307.388 121.091C309.066 121.091 310.377 120.284 311.327 118.663L312.796 122.111C311.51 123.962 309.618 124.888 307.134 124.888C304.646 124.888 302.713 123.783 301.336 121.568C299.96 119.358 299.271 116.341 299.271 112.516C299.271 108.956 300.034 105.984 301.564 103.589C303.09 101.194 305.044 100 307.424 100C309.465 100 311.099 100.561 312.323 101.694Z" fill="#231F20"/>
<path d="M315.409 124.478V100.41H318.569V124.478H315.409ZM317.026 93.4786C317.528 93.4786 317.959 93.7196 318.32 94.207C318.681 94.6954 318.863 95.2782 318.863 95.9567C318.863 96.6352 318.681 97.219 318.32 97.7064C317.959 98.1946 317.528 98.4356 317.026 98.4356C316.516 98.4356 316.08 98.1946 315.72 97.7064C315.359 97.219 315.181 96.6352 315.181 95.9567C315.181 95.2782 315.359 94.6954 315.72 94.207C316.08 93.7196 316.516 93.4786 317.026 93.4786Z" fill="#231F20"/>
<path d="M337.15 104.206V124.478H333.989V104.206H328.327V100.41H343.063V104.206H337.15Z" fill="#231F20"/>
<path d="M353.162 124.478L351.864 119.599H345.764L344.523 124.478H341.015L348.111 100.079H349.496L356.65 124.478H353.162ZM348.804 107.442L346.663 116.33H350.939L348.804 107.442Z" fill="#231F20"/>
<path d="M368.632 124.478L363.676 114.227L361.694 117.889V124.478H358.533V100.41H361.694V111.928L367.745 100.41H371.34L365.766 110.924L372.41 124.478H368.632Z" fill="#231F20"/>
<path d="M373.953 124.478V100.41H377.113V124.478H373.953Z" fill="#231F20"/>
<path d="M397.415 124.495H394.354L392.509 111.513L388.925 124.809H387.793L384.21 111.513L382.289 124.495H379.241L382.825 100.41H384.5L388.353 116.627L392.119 100.41H393.782L397.415 124.495Z" fill="#231F20"/>
<path d="M399.36 124.478V100.41H402.521V120.682H410.566V124.478H399.36Z" fill="#231F20"/>
<path d="M423.502 124.478L422.204 119.599H416.104L414.863 124.478H411.355L418.451 100.079H419.836L426.99 124.478H423.502ZM419.144 107.442L417.003 116.33H421.279L419.144 107.442Z" fill="#231F20"/>
<path d="M438.91 124.478L434.161 114.541C433.684 114.53 433.017 114.49 432.154 114.424V124.478H428.873V100.41C429.052 100.41 429.736 100.37 430.93 100.286C432.121 100.202 433.079 100.163 433.809 100.163C438.329 100.163 440.59 102.529 440.59 107.262C440.59 108.686 440.275 109.982 439.653 111.154C439.03 112.326 438.242 113.15 437.297 113.633L442.556 124.478H438.91ZM432.154 104.122V110.806C432.739 110.874 433.187 110.907 433.493 110.907C434.812 110.907 435.779 110.655 436.388 110.15C437.002 109.646 437.309 108.67 437.309 107.212C437.309 106.029 436.981 105.199 436.322 104.733C435.666 104.262 434.634 104.027 433.224 104.027C432.884 104.027 432.527 104.055 432.154 104.122Z" fill="#231F20"/>
<path d="M465.3 102.366L463.977 105.798C463.603 105.35 463.032 104.901 462.252 104.459C461.476 104.015 460.805 103.797 460.249 103.797C458.498 103.797 457.118 104.598 456.105 106.202C455.089 107.806 454.583 109.954 454.583 112.651C454.583 115.214 455.081 117.261 456.073 118.792C457.068 120.329 458.415 121.091 460.124 121.091C461.252 121.091 462.178 120.676 462.908 119.846V115.113H460.444V111.468H466.067V122.246C465.312 123.076 464.342 123.727 463.156 124.192C461.97 124.658 460.788 124.888 459.614 124.888C457.064 124.888 455.04 123.76 453.546 121.495C452.054 119.234 451.303 116.246 451.303 112.534C451.303 108.822 452.12 105.804 453.746 103.482C455.375 101.161 457.565 100 460.319 100C462.273 100 463.932 100.785 465.3 102.366Z" fill="#231F20"/>
<path d="M468.921 124.478V100.41H472.08V124.478H468.921Z" fill="#231F20"/>
<path d="M479.737 124.478H475.784V100.426C478.307 100.303 479.89 100.247 480.538 100.247C483.129 100.247 485.187 101.273 486.705 103.325C488.223 105.378 488.982 108.104 488.982 111.502C488.982 120.155 485.9 124.478 479.737 124.478ZM478.945 104.155V120.586C479.455 120.648 480.007 120.682 480.6 120.682C482.192 120.682 483.445 119.902 484.345 118.332C485.249 116.768 485.701 114.574 485.701 111.76C485.701 106.612 483.93 104.038 480.393 104.038C480.052 104.038 479.571 104.077 478.945 104.155Z" fill="#231F20"/>
<path d="M502.163 124.478L500.864 119.599H494.764L493.523 124.478H490.015L497.111 100.079H498.496L505.65 124.478H502.163ZM497.804 107.442L495.663 116.33H499.939L497.804 107.442Z" fill="#231F20"/>
<path d="M514.302 124.478V100.41H517.462V124.478H514.302ZM515.919 93.4786C516.421 93.4786 516.852 93.7196 517.213 94.207C517.574 94.6954 517.757 95.2782 517.757 95.9567C517.757 96.6352 517.574 97.219 517.213 97.7064C516.852 98.1946 516.421 98.4356 515.919 98.4356C515.409 98.4356 514.974 98.1946 514.613 97.7064C514.252 97.219 514.074 96.6352 514.074 95.9567C514.074 95.2782 514.252 94.6954 514.613 94.207C514.974 93.7196 515.409 93.4786 515.919 93.4786Z" fill="#231F20"/>
<path d="M532.845 124.809L524.206 109.578V124.495H521.166V100.41H522.688L531.095 114.934V100.41H534.13V124.809H532.845Z" fill="#231F20"/>
<path d="M536.927 123.149L538.096 119.319C539.34 120.502 540.567 121.091 541.774 121.091C543.632 121.091 544.557 120.216 544.557 118.467C544.557 117.643 544.338 116.863 543.902 116.117C543.467 115.371 542.563 114.536 541.198 113.61C539.833 112.685 538.913 111.922 538.44 111.328C537.968 110.728 537.602 110.022 537.345 109.197C537.092 108.378 536.964 107.47 536.964 106.472C536.964 104.61 537.469 103.068 538.478 101.84C539.485 100.612 540.779 100 542.359 100C544.417 100 545.926 100.522 546.892 101.559L545.93 105.238C544.823 104.167 543.649 103.629 542.421 103.629C541.692 103.629 541.127 103.892 540.725 104.408C540.323 104.929 540.124 105.608 540.124 106.438C540.124 107.818 541.252 109.253 543.512 110.745C544.702 111.53 545.561 112.259 546.088 112.92C546.614 113.582 547.017 114.356 547.291 115.236C547.569 116.117 547.706 117.104 547.706 118.186C547.706 120.137 547.137 121.742 545.997 122.998C544.86 124.26 543.334 124.888 541.422 124.888C539.763 124.888 538.265 124.31 536.927 123.149ZM539.784 131.46L539.286 129.374C539.564 129.475 539.846 129.519 540.137 129.519C541.198 129.519 541.729 129.026 541.729 128.028C541.729 127.664 541.646 127.316 541.479 126.974C541.314 126.637 541.106 126.424 540.854 126.335L541.886 124.871C543.346 125.28 544.073 126.413 544.073 128.275C544.073 129.323 543.786 130.148 543.209 130.748C542.637 131.342 541.891 131.639 540.974 131.639C540.563 131.639 540.165 131.583 539.784 131.46Z" fill="#231F20"/>
<path d="M560.886 124.478L559.588 119.599H553.487L552.247 124.478H548.739L555.835 100.079H557.22L564.374 124.478H560.886ZM556.527 107.442L554.387 116.33H558.663L556.527 107.442Z" fill="#231F20"/>
<path d="M576.646 124.478L575.347 119.599H569.247L568.006 124.478H564.498L571.594 100.079H572.979L580.133 124.478H576.646ZM572.287 107.442L570.146 116.33H574.423L572.287 107.442Z" fill="#231F20"/>
<path d="M586.907 104.206V124.478H583.746V104.206H578.085V100.41H592.821V104.206H586.907Z" fill="#231F20"/>
<path d="M130.177 157.551C130.177 154.124 130.873 151.224 132.263 148.852C133.652 146.48 135.51 145.297 137.832 145.297C140.391 145.297 142.349 146.368 143.701 148.517C145.053 150.664 145.729 153.675 145.729 157.551C145.729 161.431 145.024 164.51 143.609 166.786C142.195 169.063 140.188 170.202 137.588 170.202C135.198 170.202 133.366 169.074 132.093 166.82C130.815 164.56 130.177 161.476 130.177 157.551ZM133.457 157.551C133.457 160.365 133.809 162.547 134.515 164.089C135.219 165.637 136.244 166.405 137.588 166.405C139.168 166.405 140.375 165.654 141.204 164.139C142.034 162.631 142.449 160.433 142.449 157.551C142.449 151.914 140.91 149.093 137.832 149.093C136.422 149.093 135.34 149.856 134.589 151.382C133.834 152.913 133.457 154.965 133.457 157.551Z" fill="#231F20"/>
<path d="M155.77 149.52V169.792H152.61V149.52H146.948V145.724H161.684V149.52H155.77Z" fill="#231F20"/>
<path d="M161.419 157.551C161.419 154.124 162.115 151.224 163.505 148.852C164.894 146.48 166.752 145.297 169.074 145.297C171.633 145.297 173.591 146.368 174.943 148.517C176.295 150.664 176.971 153.675 176.971 157.551C176.971 161.431 176.266 164.51 174.852 166.786C173.437 169.063 171.43 170.202 168.83 170.202C166.44 170.202 164.608 169.074 163.334 166.82C162.057 164.56 161.419 161.476 161.419 157.551ZM164.699 157.551C164.699 160.365 165.051 162.547 165.757 164.089C166.461 165.637 167.486 166.405 168.83 166.405C170.41 166.405 171.617 165.654 172.446 164.139C173.275 162.631 173.691 160.433 173.691 157.551C173.691 151.914 172.151 149.093 169.074 149.093C167.664 149.093 166.582 149.856 165.831 151.382C165.076 152.913 164.699 154.965 164.699 157.551Z" fill="#231F20"/>
<path d="M196.364 169.809H193.303L191.458 156.827L187.874 170.123H186.742L183.159 156.827L181.238 169.809H178.19L181.774 145.724H183.449L187.302 161.941L191.068 145.724H192.731L196.364 169.809Z" fill="#231F20"/>
<path d="M197.459 157.551C197.459 154.124 198.156 151.224 199.546 148.852C200.935 146.48 202.792 145.297 205.115 145.297C207.674 145.297 209.632 146.368 210.984 148.517C212.335 150.664 213.012 153.675 213.012 157.551C213.012 161.431 212.307 164.51 210.892 166.786C209.478 169.063 207.471 170.202 204.871 170.202C202.481 170.202 200.649 169.074 199.375 166.82C198.098 164.56 197.459 161.476 197.459 157.551ZM200.74 157.551C200.74 160.365 201.092 162.547 201.798 164.089C202.502 165.637 203.526 166.405 204.871 166.405C206.451 166.405 207.658 165.654 208.487 164.139C209.316 162.631 209.732 160.433 209.732 157.551C209.732 151.914 208.192 149.093 205.115 149.093C203.705 149.093 202.623 149.856 201.872 151.382C201.117 152.913 200.74 154.965 200.74 157.551Z" fill="#231F20"/>
<path d="M223.052 149.52V169.792H219.892V149.52H214.23V145.724H228.966V149.52H223.052Z" fill="#231F20"/>
<path d="M231.094 169.792V145.724H234.254V169.792H231.094ZM232.712 138.793C233.213 138.793 233.644 139.034 234.005 139.521C234.366 140.009 234.549 140.592 234.549 141.271C234.549 141.949 234.366 142.533 234.005 143.02C233.644 143.509 233.213 143.75 232.712 143.75C232.201 143.75 231.766 143.509 231.405 143.02C231.045 142.533 230.866 141.949 230.866 141.271C230.866 140.592 231.045 140.009 231.405 139.521C231.766 139.034 232.201 138.793 232.712 138.793Z" fill="#231F20"/>
<path d="M244.594 170.123H242.857L236.2 145.724H239.675L243.793 161.986L248.144 145.724H251.545L244.594 170.123Z" fill="#231F20"/>
<path d="M260.072 168.463L261.242 164.633C262.486 165.816 263.713 166.405 264.92 166.405C266.778 166.405 267.703 165.53 267.703 163.78C267.703 162.956 267.483 162.177 267.047 161.431C266.613 160.685 265.709 159.85 264.344 158.924C262.979 157.999 262.058 157.236 261.586 156.642C261.113 156.042 260.748 155.336 260.491 154.511C260.238 153.692 260.11 152.784 260.11 151.786C260.11 149.924 260.615 148.382 261.623 147.153C262.631 145.926 263.925 145.314 265.505 145.314C267.562 145.314 269.072 145.836 270.038 146.873L269.076 150.552C267.968 149.481 266.795 148.942 265.567 148.942C264.838 148.942 264.273 149.206 263.871 149.722C263.469 150.243 263.27 150.922 263.27 151.752C263.27 153.132 264.398 154.567 266.658 156.059C267.848 156.844 268.707 157.573 269.234 158.234C269.76 158.896 270.163 159.67 270.437 160.55C270.714 161.431 270.851 162.418 270.851 163.5C270.851 165.451 270.283 167.056 269.142 168.312C268.006 169.574 266.48 170.202 264.568 170.202C262.909 170.202 261.411 169.624 260.072 168.463Z" fill="#231F20"/>
<path d="M284.032 169.792L282.733 164.913H276.633L275.392 169.792H271.884L278.98 145.392H280.365L287.52 169.792H284.032ZM279.673 152.756L277.533 161.644H281.809L279.673 152.756Z" fill="#231F20"/>
<path d="M301.081 170.123L292.443 154.892V169.809H289.402V145.724H290.925L299.332 160.248V145.724H302.367V170.123H301.081Z" fill="#231F20"/>
<path d="M316.402 169.792L315.104 164.913H309.004L307.763 169.792H304.255L311.351 145.392H312.736L319.89 169.792H316.402ZM312.044 152.756L309.903 161.644H314.179L312.044 152.756Z" fill="#231F20"/>
<path d="M326.954 159.917V169.792H323.793V159.917L317.792 145.724H321.143L325.361 155.991L329.587 145.724H332.93L326.954 159.917Z" fill="#231F20"/>
<path d="M334.875 169.792V145.724H338.034V169.792H334.875ZM336.492 138.793C336.993 138.793 337.425 139.034 337.785 139.521C338.147 140.009 338.329 140.592 338.329 141.271C338.329 141.949 338.147 142.533 337.785 143.02C337.425 143.509 336.993 143.75 336.492 143.75C335.982 143.75 335.546 143.509 335.186 143.02C334.825 142.533 334.647 141.949 334.647 141.271C334.647 140.592 334.825 140.009 335.186 139.521C335.546 139.034 335.982 138.793 336.492 138.793Z" fill="#231F20"/>
<path d="M355.872 170.123H354.135L347.479 145.724H350.954L355.072 161.986L359.422 145.724H362.823L355.872 170.123Z" fill="#231F20"/>
<path d="M367.863 149.52V155.156H373.744V158.784H367.863V165.996H375.929V169.792H364.702V145.724H376.066V149.52H367.863Z" fill="#231F20"/>
<path d="M393.154 149.52V169.792H389.993V149.52H384.332V145.724H399.067V149.52H393.154Z" fill="#231F20"/>
<path d="M401.196 169.792V145.724H404.356V169.792H401.196ZM402.813 138.793C403.314 138.793 403.746 139.034 404.107 139.521C404.468 140.009 404.65 140.592 404.65 141.271C404.65 141.949 404.468 142.533 404.107 143.02C403.746 143.509 403.314 143.75 402.813 143.75C402.303 143.75 401.868 143.509 401.507 143.02C401.146 142.533 400.968 141.949 400.968 141.271C400.968 140.592 401.146 140.009 401.507 139.521C401.868 139.034 402.303 138.793 402.813 138.793Z" fill="#231F20"/>
<path d="M420.261 147.008L418.959 150.535C418.254 149.582 417.122 149.111 415.558 149.111C414.078 149.111 412.863 149.946 411.913 151.628C410.967 153.311 410.49 155.436 410.49 158.01C410.49 160.584 410.93 162.631 411.809 164.139C412.688 165.654 413.862 166.405 415.326 166.405C417.005 166.405 418.316 165.598 419.266 163.977L420.734 167.425C419.449 169.276 417.557 170.202 415.073 170.202C412.584 170.202 410.652 169.097 409.275 166.882C407.898 164.672 407.21 161.655 407.21 157.83C407.21 154.27 407.973 151.298 409.503 148.903C411.029 146.508 412.982 145.314 415.363 145.314C417.404 145.314 419.038 145.875 420.261 147.008Z" fill="#231F20"/>
<path d="M433.674 169.792L432.376 164.913H426.276L425.035 169.792H421.527L428.623 145.392H430.008L437.162 169.792H433.674ZM429.316 152.756L427.175 161.644H431.451L429.316 152.756Z" fill="#231F20"/>
<path d="M449.082 169.792L444.333 159.855C443.856 159.844 443.189 159.804 442.326 159.737V169.792H439.045V145.724C439.224 145.724 439.908 145.684 441.102 145.6C442.293 145.516 443.251 145.477 443.981 145.477C448.501 145.477 450.761 147.843 450.761 152.576C450.761 154 450.447 155.296 449.825 156.468C449.202 157.64 448.414 158.464 447.468 158.947L452.727 169.792H449.082ZM442.326 149.436V156.12C442.911 156.188 443.359 156.221 443.665 156.221C444.984 156.221 445.951 155.969 446.56 155.464C447.174 154.96 447.481 153.984 447.481 152.526C447.481 151.343 447.153 150.513 446.494 150.047C445.838 149.576 444.806 149.341 443.396 149.341C443.056 149.341 442.699 149.369 442.326 149.436Z" fill="#231F20"/>
<path d="M457.406 149.52V155.156H463.287V158.784H457.406V165.996H465.472V169.792H454.245V145.724H465.609V149.52H457.406Z" fill="#231F20"/>
<path d="M475.646 149.52V169.792H472.485V149.52H466.824V145.724H481.559V149.52H475.646Z" fill="#231F20"/>
<path d="M490.675 169.792V145.724H493.836V165.996H501.881V169.792H490.675Z" fill="#231F20"/>
<path d="M509.829 149.52V169.792H506.668V149.52H501.007V145.724H515.742V149.52H509.829Z" fill="#231F20"/>
<path d="M521.761 169.792H517.808V145.74C520.33 145.617 521.914 145.561 522.561 145.561C525.153 145.561 527.211 146.587 528.729 148.639C530.246 150.692 531.006 153.417 531.006 156.816C531.006 165.469 527.924 169.792 521.761 169.792ZM520.969 149.469V165.9C521.479 165.962 522.03 165.996 522.623 165.996C524.216 165.996 525.468 165.216 526.368 163.646C527.273 162.082 527.725 159.889 527.725 157.074C527.725 151.926 525.954 149.352 522.416 149.352C522.076 149.352 521.595 149.391 520.969 149.469Z" fill="#231F20"/>
<path d="M534.091 167.638C534.091 166.82 534.302 166.119 534.729 165.547C535.152 164.969 535.671 164.683 536.277 164.683C536.886 164.683 537.401 164.969 537.828 165.547C538.251 166.119 538.462 166.82 538.462 167.638C538.462 168.463 538.251 169.164 537.828 169.741C537.401 170.325 536.886 170.611 536.277 170.611C535.671 170.611 535.152 170.325 534.729 169.741C534.302 169.164 534.091 168.463 534.091 167.638Z" fill="#231F20"/>
<path d="M549.581 168.463L550.751 164.633C551.995 165.816 553.222 166.405 554.429 166.405C556.288 166.405 557.212 165.53 557.212 163.78C557.212 162.956 556.993 162.177 556.557 161.431C556.122 160.685 555.218 159.85 553.853 158.924C552.488 157.999 551.568 157.236 551.095 156.642C550.623 156.042 550.257 155.336 550 154.511C549.747 153.692 549.619 152.784 549.619 151.785C549.619 149.924 550.124 148.381 551.133 147.153C552.14 145.925 553.434 145.314 555.014 145.314C557.072 145.314 558.581 145.836 559.547 146.873L558.585 150.552C557.477 149.481 556.304 148.942 555.076 148.942C554.347 148.942 553.782 149.206 553.38 149.722C552.978 150.243 552.779 150.922 552.779 151.752C552.779 153.132 553.907 154.567 556.167 156.059C557.357 156.844 558.216 157.573 558.743 158.234C559.269 158.896 559.672 159.67 559.946 160.55C560.223 161.431 560.36 162.418 560.36 163.5C560.36 165.451 559.792 167.056 558.652 168.312C557.515 169.574 555.989 170.202 554.077 170.202C552.418 170.202 550.92 169.624 549.581 168.463ZM552.439 176.774L551.941 174.688C552.219 174.789 552.501 174.833 552.792 174.833C553.853 174.833 554.384 174.34 554.384 173.342C554.384 172.977 554.301 172.63 554.134 172.288C553.969 171.951 553.761 171.738 553.509 171.649L554.541 170.185C556.001 170.594 556.728 171.727 556.728 173.589C556.728 174.637 556.441 175.462 555.864 176.062C555.292 176.656 554.546 176.953 553.629 176.953C553.218 176.953 552.82 176.897 552.439 176.774Z" fill="#231F20"/>
<path d="M570.398 149.52V169.792H567.237V149.52H561.575V145.724H576.311V149.52H570.398Z" fill="#231F20"/>
<path d="M578.439 169.792V145.724H581.599V169.792H578.439ZM580.057 138.793C580.558 138.793 580.99 139.034 581.35 139.521C581.712 140.009 581.894 140.592 581.894 141.271C581.894 141.949 581.712 142.533 581.35 143.02C580.99 143.509 580.558 143.75 580.057 143.75C579.547 143.75 579.111 143.509 578.751 143.02C578.39 142.533 578.211 141.949 578.211 141.271C578.211 140.592 578.39 140.009 578.751 139.521C579.111 139.034 579.547 138.793 580.057 138.793Z" fill="#231F20"/>
<path d="M585.597 167.638C585.597 166.82 585.808 166.119 586.236 165.547C586.659 164.969 587.177 164.683 587.783 164.683C588.392 164.683 588.907 164.969 589.335 165.547C589.757 166.119 589.968 166.82 589.968 167.638C589.968 168.463 589.757 169.164 589.335 169.741C588.907 170.325 588.392 170.611 587.783 170.611C587.177 170.611 586.659 170.325 586.236 169.741C585.808 169.164 585.597 168.463 585.597 167.638Z" fill="#231F20"/>
</svg>
