<svg width="500" height="279" viewBox="0 0 500 279" fill="none" xmlns="http://www.w3.org/2000/svg">
<path d="M257.767 261.596C263.563 260.834 269.373 260.036 274.929 258.184C291.435 252.682 304.809 242.954 314.811 228.589C322.778 217.144 326.915 204.409 328.478 190.688C329.594 180.893 328.466 171.302 325.74 161.911C321.764 148.211 314.673 136.307 303.703 127.105C294.294 119.213 284.388 111.916 274.786 104.249C263.5 95.2367 252.336 86.0702 241.061 77.0444C229.652 67.9114 218.085 58.9726 206.751 49.7488C199.419 43.7822 191.948 37.9986 184.531 32.1437C173.056 23.0854 161.543 14.0748 150.07 5.01397C140.385 -2.63449 126.302 -1.78768 120.119 9.31827C116.185 16.3854 113.244 23.9227 109.695 31.1749C102.403 46.0769 95.471 61.1551 88.2467 76.0912C78.6226 95.9888 68.7188 115.752 59.1948 135.697C47.3659 160.469 34.6353 184.788 22.554 209.432C16.4573 221.869 9.95542 234.106 3.68516 246.458C2.25007 249.285 0.937903 252.14 0.345331 255.346C-1.47249 265.18 4.02355 274.434 13.6004 277.157C20.0596 278.994 26.2531 278.254 31.9103 274.567C44.5273 266.346 57.1291 258.099 69.6514 249.735C84.5347 239.793 99.2232 229.556 114.193 219.749C126.287 211.826 138.042 203.42 150.055 195.388C152.431 193.798 153.466 192.058 153.359 189.054C153.047 180.302 152.873 171.526 154.391 162.829C154.584 161.723 155.465 160.282 154.073 159.542C152.854 158.895 151.856 160.118 150.889 160.768C139.32 168.541 127.789 176.37 116.199 184.112C93.3765 199.358 70.5236 214.559 47.6794 229.773C47.1262 230.142 46.5655 230.666 45.7874 230.059C45.623 229.454 45.8848 228.926 46.1553 228.383C54.0256 212.599 61.9824 196.857 69.7334 181.014C79.751 160.539 89.6132 139.987 99.5242 119.46C108.198 101.495 116.865 83.5273 125.499 65.5433C130.001 56.1648 134.415 46.7438 138.889 37.3516C140.449 34.0766 140.631 34.0814 143.396 36.2585C152.451 43.3876 161.43 50.6177 170.621 57.5675C182.348 66.4353 193.64 75.8445 205.208 84.9088C215.902 93.2877 226.431 101.876 237.085 110.306C244.562 116.223 252.253 121.877 259.614 127.934C265.658 132.907 271.766 137.793 278.017 142.492C288.96 150.716 296.972 160.717 299.411 174.664C302.227 190.768 298.348 205.082 287.431 216.936C275.198 230.218 259.407 235.104 241.712 232.237C226.427 229.761 214.776 221.186 206.889 207.894C201.153 198.227 199.197 187.713 200.667 176.438C202.061 165.749 206.194 156.507 213.381 148.536C217.499 143.969 222.368 140.293 227.164 136.514C229.443 134.718 229.449 134.244 227.274 132.338C221.444 127.231 215.174 122.688 208.903 118.147C207.968 117.471 207.157 117.241 206.136 118.073C205.966 118.212 205.795 118.351 205.625 118.49C198.053 124.659 190.468 130.839 184.93 139.029C172.522 157.378 168.4 177.492 172.734 199.22C175.522 213.194 181.64 225.691 191.373 236.069C209.18 255.057 231.419 263.18 257.767 261.596ZM489.618 276.479C500.601 271.383 502.109 258.24 497.68 249.435C487.59 229.375 477.369 209.379 467.302 189.307C466.632 187.969 465.961 186.632 465.29 185.295C455.624 166.024 445.957 146.752 436.517 127.37C424.128 101.935 411.968 76.3883 399.775 50.8588C393.734 38.2105 387.572 25.6092 381.952 12.7736C376.131 -0.519392 361.541 -3.52777 351.113 4.18134C342.071 10.8658 333.38 18.0263 324.55 24.996C316.057 31.6993 307.585 38.4296 299.102 45.1445C289.339 52.8714 279.564 60.582 269.816 68.3272C267.081 70.4998 266.994 71.497 269.707 73.7836C274.437 77.77 279.303 81.5939 284.122 85.4749C284.129 85.4808 284.136 85.4868 284.144 85.4927C288.846 89.2803 288.903 89.3267 293.682 85.6059C299.651 80.9592 305.43 76.0642 311.48 71.5285C320.553 64.7267 329.404 57.6472 338.318 50.6455C344.608 45.7042 350.852 40.7027 357.083 35.6859C358.551 34.5034 359.569 34.3077 360.362 36.3678C361.102 38.2886 361.994 40.1552 362.891 42.0104C372.177 61.202 381.471 80.3899 390.776 99.5718C391.524 101.112 392.271 102.652 393.018 104.193C400.415 119.441 407.812 134.688 415.245 149.919C424.037 167.934 432.893 185.918 441.691 203.931C445.541 211.813 449.319 219.731 453.119 227.637C453.469 228.365 454.243 229.037 453.603 229.931C453.121 230.225 452.754 230.068 452.373 229.815C439.626 221.324 426.862 212.86 414.13 204.347C392.669 189.999 371.231 175.619 349.778 161.26C348.787 160.597 347.711 159.685 346.487 160.47C345.246 161.265 345.692 162.652 345.879 163.798C347.282 172.408 347.538 181.07 346.862 189.743C346.686 192.005 347.194 193.412 349.087 194.698C360.468 202.431 371.752 210.307 383.125 218.053C396.065 226.867 409.019 235.66 422.047 244.344C436.505 253.98 451.087 263.432 465.548 273.065C472.943 277.99 480.708 279.733 489.618 276.479Z" fill="url(#paint0_linear_53_3)"/>
<path d="M489.618 276.479C500.601 271.383 502.109 258.24 497.68 249.435C487.59 229.375 477.369 209.379 467.302 189.307L465.29 185.295C455.624 166.024 445.957 146.752 436.517 127.37C424.128 101.935 411.968 76.3883 399.775 50.8588C393.734 38.2105 387.572 25.6092 381.952 12.7736C376.131 -0.519392 361.541 -3.52777 351.113 4.18134C342.071 10.8658 333.38 18.0263 324.55 24.996C316.057 31.6993 307.585 38.4296 299.102 45.1445C289.339 52.8714 279.564 60.582 269.816 68.3272C267.081 70.4998 266.994 71.497 269.707 73.7836C274.437 77.77 279.303 81.5939 284.122 85.4749L284.144 85.4927C288.846 89.2803 288.903 89.3267 293.682 85.6059C299.651 80.9592 305.43 76.0642 311.48 71.5285C320.553 64.7267 329.404 57.6472 338.318 50.6455C344.608 45.7042 350.852 40.7027 357.083 35.6859C358.551 34.5034 359.569 34.3077 360.362 36.3678C361.102 38.2886 361.994 40.1552 362.891 42.0104C372.177 61.202 381.471 80.3899 390.776 99.5718L393.018 104.193C400.415 119.441 407.812 134.688 415.245 149.919C424.037 167.934 432.893 185.918 441.691 203.931C445.541 211.813 449.319 219.731 453.119 227.637C453.469 228.365 454.243 229.037 453.603 229.931C453.121 230.225 452.754 230.068 452.373 229.815C439.626 221.324 426.862 212.86 414.13 204.347C392.669 189.999 371.231 175.619 349.778 161.26C348.787 160.597 347.711 159.685 346.487 160.47C345.246 161.265 345.692 162.652 345.879 163.798C347.282 172.408 347.538 181.07 346.862 189.743C346.686 192.005 347.194 193.412 349.087 194.698C360.468 202.431 371.752 210.307 383.125 218.053C396.065 226.867 409.019 235.66 422.047 244.344C436.505 253.98 451.087 263.432 465.548 273.065C472.943 277.99 480.708 279.733 489.618 276.479Z" fill="url(#paint1_linear_53_3)"/>
<path d="M257.767 261.596C263.563 260.834 269.373 260.036 274.929 258.184C291.435 252.682 304.809 242.954 314.811 228.589C322.778 217.144 326.915 204.409 328.478 190.688C329.594 180.893 328.466 171.302 325.74 161.911C321.764 148.211 314.673 136.307 303.703 127.105C294.294 119.213 284.388 111.916 274.786 104.249C263.5 95.2367 252.336 86.0702 241.061 77.0444C229.652 67.9114 218.085 58.9726 206.751 49.7488C199.419 43.7822 191.948 37.9986 184.531 32.1437C173.056 23.0854 161.543 14.0748 150.07 5.01397C140.385 -2.63449 126.302 -1.78768 120.119 9.31827C116.185 16.3854 113.244 23.9227 109.695 31.1749C102.403 46.0769 95.471 61.1551 88.2467 76.0912C78.6226 95.9888 68.7188 115.752 59.1948 135.697C47.3659 160.469 34.6353 184.788 22.554 209.432C16.4573 221.869 9.95542 234.106 3.68516 246.458C2.25007 249.285 0.937903 252.14 0.345331 255.346C-1.47249 265.18 4.02355 274.434 13.6004 277.157C20.0596 278.994 26.2531 278.254 31.9103 274.567C44.5273 266.346 57.1291 258.099 69.6514 249.735C84.5347 239.793 99.2232 229.556 114.193 219.749C126.287 211.826 138.042 203.42 150.055 195.388C152.431 193.798 153.466 192.058 153.359 189.054C153.047 180.302 152.873 171.526 154.391 162.829C154.584 161.723 155.465 160.282 154.073 159.542C152.854 158.895 151.856 160.118 150.889 160.768C139.32 168.541 127.789 176.37 116.199 184.112C93.3765 199.358 70.5236 214.559 47.6794 229.773C47.1262 230.142 46.5655 230.666 45.7874 230.059C45.623 229.454 45.8848 228.926 46.1553 228.383C54.0256 212.599 61.9824 196.857 69.7334 181.014C79.751 160.539 89.6132 139.987 99.5242 119.46C108.198 101.495 116.865 83.5273 125.499 65.5433C130.001 56.1648 134.415 46.7438 138.889 37.3516C140.449 34.0766 140.631 34.0814 143.396 36.2585C152.451 43.3876 161.43 50.6177 170.621 57.5675C182.348 66.4353 193.64 75.8445 205.208 84.9088C215.902 93.2877 226.431 101.876 237.085 110.306C244.562 116.223 252.253 121.877 259.614 127.934C265.658 132.907 271.766 137.793 278.017 142.492C288.96 150.716 296.972 160.717 299.411 174.664C302.227 190.768 298.348 205.082 287.431 216.936C275.198 230.218 259.407 235.104 241.712 232.237C226.427 229.761 214.776 221.186 206.889 207.894C201.153 198.227 199.197 187.713 200.667 176.438C202.061 165.749 206.194 156.507 213.381 148.536C217.499 143.969 222.368 140.293 227.164 136.514C229.443 134.718 229.449 134.244 227.274 132.338C221.444 127.231 215.174 122.688 208.903 118.147C207.968 117.471 207.157 117.241 206.136 118.073L205.625 118.49C198.053 124.659 190.468 130.839 184.93 139.029C172.522 157.378 168.4 177.492 172.734 199.22C175.522 213.194 181.64 225.691 191.373 236.069C209.18 255.057 231.419 263.18 257.767 261.596Z" fill="url(#paint2_linear_53_3)"/>
<defs>
<linearGradient id="paint0_linear_53_3" x1="250" y1="0" x2="250" y2="278.137" gradientUnits="userSpaceOnUse">
<stop stop-color="#57596F"/>
<stop offset="1" stop-color="#00020F"/>
</linearGradient>
<linearGradient id="paint1_linear_53_3" x1="250" y1="0" x2="250" y2="278.137" gradientUnits="userSpaceOnUse">
<stop stop-color="#57596F"/>
<stop offset="1" stop-color="#00020F"/>
</linearGradient>
<linearGradient id="paint2_linear_53_3" x1="250" y1="0" x2="250" y2="278.137" gradientUnits="userSpaceOnUse">
<stop stop-color="#57596F"/>
<stop offset="1" stop-color="#00020F"/>
</linearGradient>
</defs>
</svg>
